<svg xmlns="http://www.w3.org/2000/svg" version="1.1" xmlns:xlink="http://www.w3.org/1999/xlink" xmlns:svgjs="http://svgjs.com/svgjs" width="1980" height="1080" preserveAspectRatio="none" viewBox="0 0 1980 1080"><g mask="url(&quot;#SvgjsMask1450&quot;)" fill="none"><rect width="1980" height="1080" x="0" y="0" fill="url(#SvgjsLinearGradient1451)"></rect><path d="M1980 0L1694.81 0L1980 398.74z" fill="rgba(255, 255, 255, .1)"></path><path d="M1694.81 0L1980 398.74L1980 424.83L1092.98 0z" fill="rgba(255, 255, 255, .075)"></path><path d="M1092.98 0L1980 424.83L1980 737.6099999999999L779.49 0z" fill="rgba(255, 255, 255, .05)"></path><path d="M779.49 0L1980 737.6099999999999L1980 827.8L666.13 0z" fill="rgba(255, 255, 255, .025)"></path><path d="M0 1080L132.28 1080L0 677.22z" fill="rgba(0, 0, 0, .1)"></path><path d="M0 677.22L132.28 1080L830.48 1080L0 479.17z" fill="rgba(0, 0, 0, .075)"></path><path d="M0 479.1700000000001L830.48 1080L1326.78 1080L0 210.82000000000005z" fill="rgba(0, 0, 0, .05)"></path><path d="M0 210.82000000000005L1326.78 1080L1737.52 1080L0 200.05000000000004z" fill="rgba(0, 0, 0, .025)"></path></g><defs><mask id="SvgjsMask1450"><rect width="1980" height="1080" fill="#ffffff"></rect></mask><linearGradient x1="88.64%" y1="120.83%" x2="11.36%" y2="-20.83%" gradientUnits="userSpaceOnUse" id="SvgjsLinearGradient1451"><stop stop-color="rgba(66, 66, 66, 1)" offset="0"></stop><stop stop-color="rgba(204, 204, 204, 1)" offset="1"></stop></linearGradient></defs></svg>